<?xml version="1.0" standalone="no"?>
<!DOCTYPE svg PUBLIC "-//W3C//DTD SVG 20010904//EN"
 "http://www.w3.org/TR/2001/REC-SVG-20010904/DTD/svg10.dtd">
<svg version="1.0" xmlns="http://www.w3.org/2000/svg"
 width="307.000000pt" height="307.000000pt" viewBox="0 0 307.000000 307.000000"
 preserveAspectRatio="xMidYMid meet">
<metadata>
Created by potrace 1.14, written by Peter Selinger 2001-2017
</metadata>
<g transform="translate(0.000000,307.000000) scale(0.100000,-0.100000)"
fill="#000000" stroke="none">
<path d="M40 1700 l0 -1140 698 0 698 0 -1 113 0 112 -562 0 c-309 0 -565 3
-569 8 -6 5 -9 642 -5 797 l1 25 467 0 468 0 0 110 0 110 -462 0 c-254 0 -465
3 -469 8 -5 5 -10 742 -5 777 1 3 255 5 566 5 311 0 566 2 566 5 1 3 2 51 3
108 l2 102 -698 0 -698 0 0 -1140z"/>
<path d="M2007 2192 c-16 -3 -17 -61 -17 -818 l0 -814 450 0 450 0 0 80 c0 69
-2 80 -17 81 -10 0 -171 1 -358 2 l-340 2 -2 715 c-1 393 -2 724 -2 735 -1 18
-8 20 -74 20 -40 0 -81 -1 -90 -3z"/>
</g>
</svg>
